<?xml version="1.0" encoding="utf-8"?>
<!-- Generator: Adobe Illustrator 17.1.0, SVG Export Plug-In . SVG Version: 6.00 Build 0)  -->
<svg version="1.2" baseProfile="tiny" id="Shape_1_1_"
xmlns="http://www.w3.org/2000/svg" xmlns:xlink="http://www.w3.org/1999/xlink" x="0px" y="0px" viewBox="0 0 680 800"
xml:space="preserve">
<g id="Shape_1">
<path fill-rule="evenodd" d="M337.6,431.1c0.8,0,1.7,0,2.7,0c0.3,0,0.7,0,1,0c0.5,0,1.2,0,1.7,0c48.5-0.8,87.8-17.9,116.8-50.5
c63.8-71.9,53.2-195.2,52-206.9c-4.1-88.3-45.9-130.5-80.3-150.3C405.7,8.6,375.7,0.7,342.2,0h-1.2c-0.2,0-0.5,0-0.7,0h-1
c-18.4,0-54.5,3-89.1,22.7c-34.8,19.7-77.2,62-81.3,150.9c-1.2,11.8-11.8,135,52,206.9C249.8,413.2,289.1,430.2,337.6,431.1z
M213.2,177.8c0-0.5,0.2-1,0.2-1.3c5.5-118.8,89.8-131.5,125.9-131.5h0.7c0.3,0,0.8,0,1.3,0c44.7,1,120.8,19.2,125.9,131.5
c0,0.5,0,1,0.2,1.3c0.2,1.2,11.8,113.8-40.9,173.1c-20.9,23.5-48.7,35.1-85.3,35.5c-0.3,0-0.5,0-0.8,0c-0.3,0-0.5,0-0.8,0
c-36.4-0.3-64.4-11.9-85.1-35.5C201.8,291.9,213,178.8,213.2,177.8z M605.5,496.8c-0.5-0.2-1.2-0.3-1.7-0.5
c-74.7-19.1-136.8-62.1-137.5-62.6c-10.1-7.1-24-4.6-31.1,5.5c-7.1,10.1-4.6,24,5.5,31.1c2.8,2,68.7,47.9,151.2,69.1
c38.6,13.8,42.9,55,44.1,92.8c0,1.5,0,2.8,0.2,4.1c0.2,14.9-0.8,37.9-3.5,51.2c-26.8,15.2-132,67.9-292,67.9
c-159.4,0-265.2-52.8-292.2-68.1c-2.7-13.3-3.8-36.3-3.5-51.2c0-1.3,0.2-2.7,0.2-4.1c1.2-37.8,5.5-79,44.1-92.8
c82.5-21.2,148.4-67.3,151.2-69.1c10.1-7.1,12.6-21,5.5-31.1c-7.1-10.1-21-12.6-31.1-5.5c-0.7,0.5-62.5,43.6-137.5,62.6
c-0.7,0.2-1.2,0.3-1.7,0.5c-71.9,24.7-74,101.4-75,134c0,1.5,0,2.8-0.2,4.1c0,0.2,0,0.3,0,0.5c-0.2,8.6-0.3,52.8,8.4,75
c1.7,4.3,4.6,8,8.6,10.4c5,3.3,124.1,79.2,323.4,79.2c199.3,0,318.4-76,323.4-79.2c3.8-2.5,7-6.1,8.6-10.4
c4.4-11.6,6.4-29.3,7.3-44.7v-47.9C678.1,580.9,669,518.5,605.5,496.8z"/>
</g>
</svg>
