<?xml version="1.0" encoding="utf-8"?>
<!-- Generator: Adobe Illustrator 17.1.0, SVG Export Plug-In . SVG Version: 6.00 Build 0)  -->
<svg width="16" height="16" version="1.2" baseProfile="tiny" id="Shape_1_1_"
xmlns="http://www.w3.org/2000/svg" xmlns:xlink="http://www.w3.org/1999/xlink" x="0px" y="0px" viewBox="0 0 800 800"
xml:space="preserve">
<path fill-rule="evenodd" d="M800,781.7v-11.3c-1-4.1-3-8-6.2-11.2L599.4,564.8c52.1-60,83.7-138.2,83.7-223.7
C683.1,152.9,530.1,0,342.1,0C153.9,0,1,153.1,1,341.1c0,188,153.1,341.1,341.1,341.1c85.5,0,163.7-31.6,223.6-83.7l194.4,194.4
c4.6,4.6,10.8,7.1,16.8,7.1c6,0,12.2-2.3,16.8-7.1C797,789.7,799,785.8,800,781.7z M341.9,634.5c-161.6,0-293.2-131.6-293.2-293.4
c0-161.8,131.6-293.2,293.2-293.2C503.6,47.9,635,179.5,635,341.1C635,502.7,503.6,634.5,341.9,634.5z"/>
</svg>
