<?xml version="1.0" encoding="utf-8"?>
<!-- Generator: Adobe Illustrator 17.1.0, SVG Export Plug-In . SVG Version: 6.00 Build 0)  -->
<svg width="15" height="16" version="1.2" baseProfile="tiny" id="Shape_1_1_"
xmlns="http://www.w3.org/2000/svg" xmlns:xlink="http://www.w3.org/1999/xlink" x="0px" y="0px" viewBox="0 0 640 800"
xml:space="preserve">
<g id="Shape_1">
<path fill-rule="evenodd" d="M639.8,691.5l-45.8-515.8c-1-11.5-10.6-20.1-21.9-20.1H478C476.6,69.5,406.3,0,320,0
c-86.3,0-156.6,69.5-158,155.6H67.9c-11.4,0-20.9,8.7-21.9,20.1L0.2,691.5c0,0.7-0.2,1.3-0.2,2C0,752.2,53.8,800,120,800h400
c66.2,0,120-47.8,120-106.5C640,692.8,640,692.2,639.8,691.5z M320,44.2c62,0,112.5,49.7,113.8,111.4H206.2
C207.5,93.9,258,44.2,320,44.2z M520,755.8H120c-41.5,0-75.2-27.5-75.9-61.3L88,199.9h73.9V267c0,12.3,9.8,22.1,22.1,22.1
c12.3,0,22.1-9.8,22.1-22.1v-67.1h227.8V267c0,12.3,9.8,22.1,22.1,22.1c12.3,0,22.1-9.8,22.1-22.1v-67.1h73.9l44,494.6
C595.2,728.3,561.3,755.8,520,755.8z"/>
</g>
</svg>
